<?xml version="1.0"?><svg data-name="filled outline" id="filled_outline" viewBox="0 0 64 64" xmlns="http://www.w3.org/2000/svg"><path d="M25.585,19.379,28.393,16.5a2.152,2.152,0,0,0,0-3h0a2.059,2.059,0,0,0-2.947,0l2.947-3a2.15,2.15,0,0,0,0-3,2.059,2.059,0,0,0-2.947,0L23.967,9V5a1.965,1.965,0,1,0-3.929,0V9L18.57,7.505a2.065,2.065,0,0,0-2.957,0h0a2.155,2.155,0,0,0-.012,3l2.646,2.733a2.063,2.063,0,0,0-2.634.268h0l0,0,0,0a2.1,2.1,0,0,0-.567,1.1A2.148,2.148,0,0,0,15.6,16.5L18.986,20c-.145-.148-.3-.307-.453-.468a2.034,2.034,0,0,0-2.928-.018,2.123,2.123,0,0,0,0,2.968L22.052,29l6.341-6.5a2.152,2.152,0,0,0,0-3A2.054,2.054,0,0,0,25.585,19.379Z" style="fill:#70942d"/><rect height="31" style="fill:#63a6d3" width="11" x="25" y="14"/><polygon points="36 45 46 45 46 14 41 9 36 14 36 45" style="fill:#4092c9"/><polygon points="25 14 30 9 41 9 36 14 25 14" style="fill:#579fd0"/><rect height="4" style="fill:#d6d9db" width="11" x="30" y="5"/><polygon points="25 32.5 25 45 36 45 36 21.5 25 32.5" style="fill:#579fd0"/><path d="M51.491,3h0a5.621,5.621,0,0,1,5.137,7.659L46.211,38.388A5.508,5.508,0,0,1,41.074,42h0a5.621,5.621,0,0,1-5.137-7.659L46.353,6.612A5.51,5.51,0,0,1,51.491,3Z" style="fill:#d68033"/><path d="M35.937,34.341A5.621,5.621,0,0,0,41.074,42a5.508,5.508,0,0,0,5.137-3.612L52.969,20.4a31.1,31.1,0,0,1-14.061,6.032Z" style="fill:#d17726"/><rect height="6.31" style="fill:#c96e23" transform="translate(-1.882 16.135) rotate(-18.031)" width="2" x="48.907" y="10.845"/><rect height="6.31" style="fill:#c96e23" transform="translate(-4.194 15.576) rotate(-18.035)" width="2" x="45.977" y="17.845"/><rect height="7.917" style="fill:#88b337" transform="translate(-5.602 8.405) rotate(-27.848)" width="2" x="13.151" y="11.542"/><rect height="7.64" style="fill:#88b337" transform="translate(-8.913 14.462) rotate(-47.873)" width="2" x="10.833" y="13.451"/><path d="M28.548,40.968a2.027,2.027,0,0,1-2.708-.423l-12.5-15.687a4.462,4.462,0,0,1,.886-6.576h0a4.373,4.373,0,0,1,6.362,1.673l8.671,18.466a2.025,2.025,0,0,1-.71,2.547Z" style="fill:#ff7230"/><polygon points="16.922 22.476 13.531 25.099 14.777 26.663 18.146 24.058 16.922 22.476" style="fill:#de5718"/><polygon points="19.673 26.633 16.645 29.007 17.892 30.572 20.908 28.208 19.673 26.633" style="fill:#de5718"/><circle cx="28.5" cy="27.5" r="5.5" style="fill:#ff9b30"/><path d="M30.983,22.6a6.3,6.3,0,0,1-7.3,7.548A5.5,5.5,0,1,0,30.983,22.6Z" style="fill:#f28e22"/><path d="M39,27l-3,2-3-2-3,2-3-2-3,2-3-2-3,2-3-2V57a4,4,0,0,0,4,4H42V29Z" style="fill:#f0ae62"/><path d="M48,29l-3-2-3,2V61h5a4,4,0,0,0,4-4V27Z" style="fill:#e6994e"/><path d="M18.971,59.058l.349-.7A15.916,15.916,0,0,0,21,51.243a4.22,4.22,0,0,0-6-3.849V57a3.993,3.993,0,0,0,2.361,3.641A3.505,3.505,0,0,0,18.971,59.058Z" style="fill:#eda047"/><path d="M12,50H10V46a2,2,0,0,0-2-2V42a4,4,0,0,1,4,4Z" style="fill:#965735"/><path d="M13.829,61h0a3.513,3.513,0,0,1-1.571-.371L11,60l-1.258.629A3.513,3.513,0,0,1,8.171,61h0a3.513,3.513,0,0,1-3.142-1.942l-.349-.7A15.916,15.916,0,0,1,3,51.243H3A4.242,4.242,0,0,1,7.243,47h0a4.243,4.243,0,0,1,3,1.243L11,49l.757-.757a4.243,4.243,0,0,1,3-1.243h0A4.242,4.242,0,0,1,19,51.243h0a15.916,15.916,0,0,1-1.68,7.118l-.349.7A3.513,3.513,0,0,1,13.829,61Z" style="fill:#e3584b"/><path d="M17.068,47.691C14.71,54.482,8.455,57.875,5.137,59.241a3.5,3.5,0,0,0,4.605,1.388L11,60l1.258.629a3.512,3.512,0,0,0,4.713-1.571l.349-.7A15.916,15.916,0,0,0,19,51.243,4.234,4.234,0,0,0,17.068,47.691Z" style="fill:#d64740"/><rect height="6.31" transform="translate(-1.882 16.135) rotate(-18.031)" width="2" x="48.907" y="10.845"/><rect height="6.31" transform="translate(-4.194 15.576) rotate(-18.035)" width="2" x="45.977" y="17.845"/><path d="M11.328,21.227a5.45,5.45,0,0,0,1.228,4.254L14,27.292V44h2V28.869l1.445.963a1,1,0,0,0,1.11,0L21,28.2l2.445,1.63a1,1,0,0,0,1.11,0L27,28.2l2.445,1.63a1,1,0,0,0,1.11,0L33,28.2l2.445,1.63a1,1,0,0,0,1.11,0L39,28.2l2,1.333V60H19v2H47a5.006,5.006,0,0,0,5-5V27a.993.993,0,0,0-.215-.605L57.564,11.01a6.735,6.735,0,0,0-.762-6.2A6.389,6.389,0,0,0,51.491,2a6.547,6.547,0,0,0-6.074,4.261l-1.568,4.174L42,8.586V5a1,1,0,0,0-1-1H30a1,1,0,0,0-1,1V6.716a3.123,3.123,0,0,0-4.033-.137V5a2.964,2.964,0,1,0-5.928,0V6.58a3.04,3.04,0,0,0-1.947-.7h0a3.047,3.047,0,0,0-2.192.923,3.168,3.168,0,0,0-.017,4.395l.931.961a3.063,3.063,0,0,0-.908.637L14.9,12.8l-.01.01a3.083,3.083,0,0,0-.57.816l-1.14-2.105-1.759.952,2.586,4.773c-.116.066-.232.13-.342.205-.041.028-.077.06-.117.088L9.678,13.973,8.322,15.444l3.844,3.544A5.456,5.456,0,0,0,11.328,21.227Zm21.117,4.941L30,27.8l-2.445-1.63a1,1,0,0,0-1.11,0l-2.422,1.615c-.006-.1-.023-.187-.023-.283a4.488,4.488,0,0,1,8.736-1.461A1.008,1.008,0,0,0,32.445,26.168ZM35,27.132l-.019-.013A6.491,6.491,0,0,0,26,21.5V15h9ZM50,57a3,3,0,0,1-3,3H43V29.535L45,28.2l2.445,1.63a1,1,0,0,0,1.11,0L50,28.869ZM47.289,6.964A4.539,4.539,0,0,1,51.491,4a4.415,4.415,0,0,1,3.667,1.944,4.737,4.737,0,0,1,.534,4.363L49.5,26.8l-1.5,1-2.445-1.63a1,1,0,0,0-1.11,0L42,27.8l-2.029-1.353Zm-4.212,5.527L37.77,26.618l-.77.514V14.414l4-4ZM31,6h9V8H31Zm-.586,4h8.172l-3,3H27.414ZM16.327,8.206a1.065,1.065,0,0,1,.765-.324h0a1.067,1.067,0,0,1,.765.324l1.468,1.5A1,1,0,0,0,21.039,9V5a.965.965,0,1,1,1.928,0V9a1,1,0,0,0,1.713.7l1.473-1.5a1.083,1.083,0,0,1,1.52,0,1.145,1.145,0,0,1,0,1.6l-2.946,3,.03.03-.464.464v0a.99.99,0,0,0-.193.285c-.014.031-.022.062-.033.094a.992.992,0,0,0-.054.264c0,.022-.012.04-.012.062v8.821a6.4,6.4,0,0,0-.632.7L21.48,19.5a5.4,5.4,0,0,0-3.46-2.8,5.286,5.286,0,0,0-1.069-.162l-.256-.3c-.2-.229-.351-.408-.375-.433a1.156,1.156,0,0,1-.3-1.017,1.106,1.106,0,0,1,.277-.558l.018-.017.025-.027a1.072,1.072,0,0,1,1.345-.126,1,1,0,0,0,1.278-1.523L16.32,9.809A1.155,1.155,0,0,1,16.327,8.206ZM13.31,21.5a3.44,3.44,0,0,1,1.476-2.387,3.373,3.373,0,0,1,4.9,1.27l2.549,5.429a6.4,6.4,0,0,0-.149.711l-.527-.352a1,1,0,0,0-1.11,0L18,27.8,15.782,26.32l-.214-.269,2.578-1.993-1.224-1.582-2.6,2.011L14.1,24.21A3.463,3.463,0,0,1,13.31,21.5Z"/><path d="M4.135,59.506A4.487,4.487,0,0,0,8.171,62a4.549,4.549,0,0,0,2.018-.476L11,61.118l.812.406A4.541,4.541,0,0,0,13.829,62a4.487,4.487,0,0,0,4.036-2.494l.349-.7A17.009,17.009,0,0,0,20,51.243,5.249,5.249,0,0,0,14.757,46,5.2,5.2,0,0,0,12,46.8V46a4,4,0,0,0-4-4v2a2,2,0,0,1,2,2v.8A5.2,5.2,0,0,0,7.243,46,5.249,5.249,0,0,0,2,51.243a17.009,17.009,0,0,0,1.786,7.565ZM7.243,48a3.221,3.221,0,0,1,2.293.95l.757.757a1,1,0,0,0,1.414,0l.757-.757A3.243,3.243,0,0,1,18,51.243a14.987,14.987,0,0,1-1.575,6.671l-.349.7A2.5,2.5,0,0,1,13.829,60a2.529,2.529,0,0,1-1.123-.265l-1.259-.63a1,1,0,0,0-.894,0l-1.258.63A2.537,2.537,0,0,1,8.171,60a2.5,2.5,0,0,1-2.247-1.389l-.349-.7A14.987,14.987,0,0,1,4,51.243,3.247,3.247,0,0,1,7.243,48Z"/></svg>